# xmcd
#
# Track frame offsets: 
#        150
#        12087
#        26010
#        44024
#        53768
#        72855
#        90621
#        106277
#        120707
#        144454
#        158977
#        181051
#        216379
#
# Disc length: 3069 seconds
#
# Revision: 2
# Processed by: cddbd v1.5.2PL0 Copyright (c) Steve Scherf et al.
# Submitted via: ExactAudioCopy v1.1
#
DISCID=b20bfb0d
DTITLE=Bill Kirchen - Stems And Seeds
DYEAR=2013
DGENRE=Rockabilly
TTITLE0=Too Much Fun
TTITLE1=Tell Me The Reason
TTITLE2=Down To Seeds And Stems Again
TTITLE3=Semi Truck
TTITLE4=Rockabilly Funeral
TTITLE5=Womb To The Tomb
TTITLE6=Flip Flop
TTITLE7=Swing Fever
TTITLE8=It Takes A Lot To Laugh, It Takes A Train To Cry
TTITLE9=Truckstop At The End Of The World
TTITLE10=Mama Hated Diesels
TTITLE11=Hot Rod Lincoln
TTITLE12=Talkin' About Chicken
EXTD=
EXTT0=
EXTT1=
EXTT2=
EXTT3=
EXTT4=
EXTT5=
EXTT6=
EXTT7=
EXTT8=
EXTT9=
EXTT10=
EXTT11=
EXTT12=
PLAYORDER=
